<?xml version="1.0" standalone="no"?>
<!DOCTYPE svg PUBLIC "-//W3C//DTD SVG 20010904//EN"
 "http://www.w3.org/TR/2001/REC-SVG-20010904/DTD/svg10.dtd">
<svg version="1.0" xmlns="http://www.w3.org/2000/svg"
 width="256.000000pt" height="256.000000pt" viewBox="0 0 256.000000 256.000000"
 preserveAspectRatio="xMidYMid meet">
<metadata>
Created by potrace 1.14, written by Peter Selinger 2001-2017
</metadata>
<g transform="translate(0.000000,256.000000) scale(0.100000,-0.100000)"
fill="#000000" stroke="none">
<path d="M102 2539 c-89 -44 -99 -80 -97 -364 2 -264 8 -287 77 -332 35 -24
54 -29 126 -32 48 -2 103 2 124 9 50 15 103 68 115 117 5 21 9 142 8 270 l-1
231 -28 42 c-39 59 -89 80 -196 80 -67 0 -94 -5 -128 -21z m199 -151 c6 -107
3 -406 -4 -415 -6 -8 -33 -13 -68 -13 -35 0 -61 5 -66 13 -10 17 -11 398 -1
420 7 13 22 17 73 17 60 0 65 -2 66 -22z"/>
<path d="M730 2538 c-11 -12 -21 -25 -21 -30 -1 -4 -2 -14 -3 -20 -3 -22 16
-55 38 -67 11 -6 41 -12 66 -13 l45 -3 0 -220 0 -220 -45 -3 c-25 -1 -55 -8
-67 -14 -28 -14 -43 -56 -31 -87 17 -47 31 -50 220 -51 187 0 192 1 218 50 12
22 -2 67 -28 86 -9 8 -40 14 -67 14 l-50 0 1 268 c0 155 -4 275 -9 287 -19 38
-39 44 -144 45 -92 0 -104 -2 -123 -22z"/>
<path d="M1432 2540 c-12 -12 -23 -25 -23 -30 -1 -6 -2 -16 -3 -22 -3 -22 16
-55 38 -67 11 -6 41 -12 66 -13 l45 -3 0 -222 0 -223 -51 0 c-48 0 -92 -23
-95 -50 -1 -6 -2 -16 -3 -22 -3 -18 14 -50 33 -65 22 -17 360 -17 382 0 29 22
40 53 29 83 -15 40 -39 53 -91 54 -28 0 -49 5 -51 13 -2 6 -4 125 -3 262 1
138 -2 261 -7 274 -16 43 -36 50 -144 51 -87 0 -103 -3 -122 -20z"/>
<path d="M2202 2539 c-45 -23 -73 -55 -89 -104 -13 -40 -9 -483 5 -516 16 -40
69 -87 111 -100 21 -6 76 -10 123 -8 71 3 91 8 125 31 71 47 77 71 78 333 1
127 -3 244 -8 260 -29 90 -90 124 -217 125 -67 0 -94 -5 -128 -21z m195 -141
c11 -16 11 -408 0 -425 -5 -8 -31 -13 -67 -13 -36 0 -62 5 -67 13 -10 17 -12
398 -1 420 7 13 21 17 67 17 35 0 62 -5 68 -12z"/>
<path d="M54 1649 c-49 -18 -64 -84 -26 -121 15 -15 34 -21 69 -22 26 -1 50
-4 53 -8 3 -3 5 -104 5 -224 l0 -218 -53 -2 c-40 -1 -59 -6 -74 -22 -30 -29
-28 -79 3 -106 23 -20 36 -21 202 -21 163 0 178 2 196 20 31 31 34 71 7 102
-18 21 -31 26 -74 26 -29 1 -53 4 -53 7 -1 3 -2 128 -3 277 -2 333 6 315 -139
318 -51 1 -103 -2 -113 -6z"/>
<path d="M865 1654 c-5 -1 -22 -5 -37 -8 -34 -8 -84 -50 -105 -90 -14 -26 -17
-67 -18 -265 0 -248 4 -283 47 -328 43 -46 76 -57 178 -57 68 0 104 5 126 17
39 20 82 70 91 105 9 35 9 469 0 504 -9 35 -52 85 -90 104 -26 14 -159 26
-192 18z m132 -158 c9 -9 11 -400 2 -424 -6 -15 -17 -18 -68 -17 -33 1 -64 5
-68 9 -8 8 -11 413 -3 425 3 4 11 10 19 12 21 7 110 3 118 -5z"/>
<path d="M1565 1654 c-5 -1 -22 -5 -37 -8 -34 -8 -84 -50 -105 -90 -14 -26
-17 -68 -18 -265 -1 -248 4 -283 47 -328 39 -42 75 -55 164 -57 92 -3 143 10
181 46 54 51 57 64 57 318 0 129 -3 247 -7 262 -9 35 -52 85 -90 104 -26 14
-161 26 -192 18z m133 -159 c12 -12 8 -417 -4 -430 -13 -12 -119 -13 -131 -1
-8 8 -11 413 -3 425 3 4 12 10 20 13 20 7 110 2 118 -7z"/>
<path d="M2132 1635 c-17 -15 -25 -32 -25 -54 0 -46 31 -73 85 -76 24 -1 49
-4 54 -7 7 -5 12 -408 5 -438 0 -3 -24 -6 -52 -6 -43 0 -56 -5 -74 -26 -27
-32 -25 -72 5 -102 19 -20 31 -21 201 -21 l181 0 23 27 c49 57 4 126 -81 123
l-49 -1 0 278 c0 341 9 321 -146 323 -91 1 -105 -1 -127 -20z"/>
<path d="M39 737 c-29 -22 -39 -53 -28 -85 12 -36 40 -51 99 -54 l45 -3 0
-210 c1 -116 -1 -216 -3 -223 -3 -7 -22 -12 -51 -12 -49 -1 -71 -12 -89 -47
-14 -25 -1 -69 26 -89 19 -15 357 -20 379 -6 25 16 42 63 32 92 -12 34 -41 49
-99 52 l-45 3 -1 265 c-1 146 -2 270 -3 277 0 7 -11 21 -23 33 -19 17 -35 20
-122 20 -64 -1 -107 -5 -117 -13z"/>
<path d="M821 740 c-44 -19 -79 -50 -97 -87 -15 -33 -18 -68 -19 -268 -1 -256
4 -290 57 -337 44 -39 91 -51 190 -47 71 3 91 8 125 31 72 48 77 69 77 343 0
274 -5 295 -77 343 -36 24 -51 27 -136 29 -53 2 -107 -2 -120 -7z m176 -152
c10 -18 11 -399 1 -421 -7 -13 -21 -17 -68 -17 -36 0 -62 5 -67 13 -11 17 -11
410 0 425 6 7 33 12 68 12 35 0 61 -5 66 -12z"/>
<path d="M1437 735 c-10 -7 -22 -29 -27 -49 -11 -52 23 -84 93 -88 l52 -3 0
-210 c1 -116 -1 -216 -3 -223 -3 -7 -22 -12 -51 -12 -56 -1 -80 -17 -91 -64
-7 -31 -4 -39 17 -61 26 -25 27 -25 202 -25 182 1 196 3 218 44 13 24 0 73
-24 92 -10 7 -39 14 -65 14 -38 0 -48 4 -49 18 -1 9 -2 130 -3 267 -1 138 -5
260 -10 273 -4 13 -19 27 -33 33 -39 15 -205 11 -226 -6z"/>
<path d="M2202 729 c-48 -24 -75 -58 -89 -109 -5 -19 -9 -136 -8 -260 1 -257
7 -281 78 -328 35 -23 53 -28 130 -31 134 -5 205 31 233 119 11 35 12 458 1
500 -13 50 -53 96 -98 114 -60 24 -193 22 -247 -5z m195 -141 c10 -18 11 -399
1 -421 -7 -13 -21 -17 -67 -17 -35 0 -62 5 -68 13 -11 15 -11 407 0 425 5 7
31 12 67 12 36 0 62 -5 67 -12z"/>
</g>
</svg>
